<svg version="1.2" xmlns="http://www.w3.org/2000/svg" viewBox="0 0 512 512" width="512" height="512">
	<title>edit</title>
	<style>
		.s0 { fill: #297cf6 } 
	</style>
	<path class="s0" d="m471.6 21.7c-21.9-21.9-57.3-21.9-79.2 0l-30.1 30 97.9 97.9 30.1-30.1c21.9-21.9 21.9-57.3 0-79.2zm-375.6 42.3c-53 0-96 43-96 96v256c0 53 43 96 96 96h256c53 0 96-43 96-96v-96c0-17.7-14.3-32-32-32-17.7 0-32 14.3-32 32v96c0 17.7-14.3 32-32 32h-256c-17.7 0-32-14.3-32-32v-256c0-17.7 14.3-32 32-32h96c17.7 0 32-14.3 32-32 0-17.7-14.3-32-32-32zm76.4 177.7c-6.1 6.1-10.8 13.6-13.5 21.9l-29.6 88.8c-2.9 8.6-0.6 18.1 5.8 24.6 6.4 6.5 15.9 8.7 24.6 5.8l88.8-29.6c8.2-2.7 15.7-7.4 21.9-13.5l167.3-167.4-98-98z"/>
</svg>