<svg version="1.2" xmlns="http://www.w3.org/2000/svg" viewBox="0 0 384 512" width="384" height="512">
	<title>moon</title>
	<style>
		.s0 { fill: #297cf6 } 
	</style>
	<path class="s0" d="m223.5 32c-123.5 0-223.5 100.3-223.5 224 0 123.7 100 224 223.5 224 60.6 0 115.5-24.2 155.8-63.4 5-4.9 6.3-12.5 3.1-18.7-3.2-6.2-10.1-9.7-17-8.5-9.8 1.7-19.8 2.6-30.1 2.6-96.9 0-175.5-78.8-175.5-176 0-65.8 36-123.1 89.3-153.3 6.1-3.5 9.2-10.5 7.7-17.3-1.5-6.8-7.3-11.9-14.3-12.5-6.3-0.5-12.6-0.8-19-0.8z"/>
</svg>