<svg version="1.2" xmlns="http://www.w3.org/2000/svg" viewBox="0 0 512 512" width="512" height="512">
	<title>sun</title>
	<style>
		.s0 { fill: #297cf6 } 
	</style>
	<path class="s0" d="m361.5 1.2c5 2.1 8.6 6.6 9.6 11.9l19.9 107.9 107.9 19.8c5.3 1 9.8 4.6 11.9 9.6 2.1 5 1.5 10.7-1.6 15.2l-62.3 90.4 62.3 90.3c3.1 4.5 3.7 10.2 1.6 15.2-2.1 5-6.6 8.6-11.9 9.6l-107.9 19.9-19.9 107.9c-1 5.3-4.6 9.8-9.6 11.9-5 2.1-10.7 1.5-15.2-1.6l-90.3-62.3-90.3 62.3c-4.5 3.1-10.2 3.7-15.2 1.6-5-2.1-8.6-6.6-9.6-11.9l-19.9-107.9-107.9-19.9c-5.3-1-9.8-4.6-11.9-9.6-2.1-5-1.5-10.7 1.6-15.2l62.3-90.3-62.3-90.3c-3.1-4.5-3.7-10.2-1.6-15.2 2.1-5 6.6-8.6 11.9-9.6l107.9-19.9 19.9-107.9c1-5.3 4.6-9.8 9.6-11.9 5-2.1 10.7-1.5 15.2 1.6l90.3 62.3 90.3-62.3c4.5-3.1 10.2-3.7 15.2-1.6zm22.5 254.8c0-33.9-13.5-66.5-37.5-90.5-24-24-56.6-37.5-90.5-37.5-33.9 0-66.5 13.5-90.5 37.5-24 24-37.5 56.6-37.5 90.5 0 33.9 13.5 66.5 37.5 90.5 24 24 56.6 37.5 90.5 37.5 33.9 0 66.5-13.5 90.5-37.5 24-24 37.5-56.6 37.5-90.5zm-224 0c0-25.5 10.1-49.9 28.1-67.9 18-18 42.4-28.1 67.9-28.1 25.5 0 49.9 10.1 67.9 28.1 18 18 28.1 42.4 28.1 67.9 0 25.5-10.1 49.9-28.1 67.9-18 18-42.4 28.1-67.9 28.1-25.5 0-49.9-10.1-67.9-28.1-18-18-28.1-42.4-28.1-67.9z"/>
</svg>